<?xml version="1.0" encoding="iso-8859-1"?>
<!-- Generator: Adobe Illustrator 19.0.0, SVG Export Plug-In . SVG Version: 6.00 Build 0)  -->
<svg version="1.1" id="Capa_1" xmlns="http://www.w3.org/2000/svg" xmlns:xlink="http://www.w3.org/1999/xlink" x="0px" y="0px"
	 viewBox="0 0 512.001 512.001" style="enable-background:new 0 0 512.001 512.001;" xml:space="preserve">
<g>
	<g>
		<g>
			<path d="M326.46,53.857c-10.63,0-19.278,8.649-19.278,19.279c0,10.631,8.648,19.279,19.278,19.279
				c10.631,0,19.279-8.648,19.279-19.279S337.09,53.857,326.46,53.857z M326.46,77.415c-2.359,0-4.278-1.92-4.278-4.279
				s1.919-4.279,4.278-4.279s4.279,1.92,4.279,4.279C330.738,75.496,328.819,77.415,326.46,77.415z"/>
			<path d="M234.546,53.857c-10.631,0-19.279,8.649-19.279,19.279c0,10.631,8.648,19.279,19.279,19.279s19.279-8.648,19.279-19.279
				C253.826,62.505,245.176,53.857,234.546,53.857z M234.546,77.415c-2.359,0-4.279-1.92-4.279-4.279s1.92-4.279,4.279-4.279
				s4.279,1.92,4.279,4.279C238.826,75.496,236.905,77.415,234.546,77.415z"/>
			<path d="M261.223,73.136c0,10.631,8.648,19.279,19.279,19.279c10.631,0,19.279-8.648,19.279-19.279s-8.648-19.279-19.279-19.279
				C269.873,53.857,261.223,62.505,261.223,73.136z M284.783,73.136c0,2.359-1.92,4.279-4.279,4.279s-4.279-1.92-4.279-4.279
				s1.92-4.279,4.279-4.279C282.863,68.857,284.783,70.777,284.783,73.136z"/>
			<path d="M235.723,133.17c0.045,0.003,0.221,0.062,0.424,0.275c7.743,8.104,18.174,12.567,29.369,12.567
				c13.257,0,25.689-6.485,33.296-17.357c3.106,0.457,6.264,0.689,9.386,0.689c17.555,0,33.98-6.915,46.252-19.471
				c12.268-12.552,18.805-29.142,18.402-46.713c-0.208-9.091-2.293-17.863-6.199-26.072c-1.78-3.74-6.255-5.331-9.995-3.55
				c-3.74,1.78-5.329,6.254-3.55,9.995c2.991,6.288,4.589,13.007,4.748,19.971c0.309,13.5-4.71,26.245-14.133,35.886
				c-9.426,9.644-22.043,14.955-35.525,14.955c-2.42,0-4.869-0.182-7.28-0.541c-5.621-0.835-11.116,1.522-14.331,6.159
				c-4.796,6.919-12.673,11.05-21.07,11.05c-7.06,0-13.638-2.816-18.522-7.929c-2.697-2.823-6.26-4.549-10.032-4.862
				c-19.985-1.655-35.64-18.677-35.64-38.753c0-20.338,15.878-37.377,36.146-38.792c3.354-0.234,6.436-2.089,8.242-4.962
				c3.993-6.348,10.844-10.138,18.326-10.138c1.793,0,3.58,0.223,5.311,0.662c3.415,0.865,6.984,0.193,9.801-1.844
				C287.655,18.246,297.694,15,308.198,15c0.076,0,0.153,0,0.229,0c8.496,0.039,16.895,2.299,24.287,6.538
				c3.595,2.06,8.177,0.818,10.237-2.776s0.817-8.177-2.776-10.237c-9.64-5.527-20.595-8.475-31.68-8.525c-0.1,0-0.199,0-0.298,0
				C295.025,0,282.41,3.921,271.6,11.364c-2.483-0.523-5.021-0.789-7.563-0.789c-11.938,0-22.925,5.692-29.806,15.335
				c-27.038,3.002-47.909,26.113-47.909,53.558c0,13.611,5.088,26.605,14.327,36.588C209.834,125.979,222.29,132.057,235.723,133.17
				z"/>
			<path d="M391.673,255.205c-7.768-1.943-26.29-3.325-35.309-2.133c-4.106,0.543-6.996,4.312-6.453,8.418
				c0.543,4.107,4.325,6.992,8.418,6.453c6.951-0.92,23.638,0.297,29.705,1.814c0.611,0.153,1.223,0.226,1.825,0.226
				c3.36-0.001,6.418-2.275,7.27-5.683C398.134,260.282,395.693,256.21,391.673,255.205z"/>
			<path d="M334.396,225.628c-4.143,0-7.5,3.358-7.5,7.5v9.828c0,4.142,3.357,7.5,7.5,7.5s7.5-3.358,7.5-7.5v-9.828
				C341.896,228.986,338.538,225.628,334.396,225.628z"/>
			<path d="M385.454,289.424c-6.442-4.755-23.036-13.09-31.832-15.425c-4.01-1.06-8.111,1.321-9.174,5.324
				c-1.063,4.004,1.321,8.111,5.324,9.174c6.775,1.799,21.742,9.282,26.773,12.996c1.341,0.989,2.9,1.466,4.448,1.466
				c2.3,0,4.569-1.054,6.04-3.046C389.495,296.58,388.788,291.884,385.454,289.424z"/>
			<path d="M430.202,284.673c0-15.676-3.23-30.732-9.145-44.737c16.849-25.512,21.444-56.74,12.543-86.37
				c-2.951-9.823-11.44-16.946-21.627-18.147c-29.485-3.471-58.511,5.644-80.392,25.072c-19.253-6.806-40.404-10.572-62.588-10.572
				c-21.869,0-43.081,3.624-62.653,10.515c-21.874-19.391-50.876-28.489-80.329-25.015c-10.188,1.2-18.676,8.324-21.625,18.146
				c-8.89,29.594-4.318,60.783,12.48,86.276c-5.967,14.204-9.082,29.309-9.082,44.831c0,28.337,10.305,51.949,30.628,70.179
				c10.385,9.316,23.16,16.993,38.171,22.99c-0.524,1.415-1.01,2.842-1.459,4.28c-6.202,2.809-11.363,7.932-14.039,14.756
				c-5.189,13.225,0.787,28.113,13.353,34.223c2.357,8.37,5.957,16.313,10.644,23.625c-10.54,5.847-22.975,5.136-27.023,4.702
				c-22.371-2.403-37.14-14.953-42.581-28.274c-0.106-0.338-0.238-0.671-0.395-0.998c-0.911-2.447-1.512-4.911-1.783-7.336
				c-0.583-5.241-3.176-9.942-7.301-13.237c-4.122-3.292-9.272-4.783-14.498-4.191c-10.813,1.205-18.631,10.984-17.427,21.799
				c2.188,19.612,12.017,37.036,28.424,50.387c14.221,11.573,32.455,19.064,51.343,21.093c3.455,0.371,6.93,0.56,10.328,0.56
				c13.869,0,27.199-3.167,38.55-9.158c3.812-2.012,7.422-4.371,10.796-7.03c2.037,1.313,4.132,2.559,6.285,3.732
				c4.868,7.033,12.973,11.665,22.141,11.709c0.21,0.007,0.401,0.005,0.602,0c28.128,0,43.537,2.609,53.186,9.006
				c4.45,2.952,9.616,4.512,14.939,4.512h0.004c9.11,0,17.553-4.529,22.583-12.115c1.745-2.632,2.996-5.492,3.733-8.468
				c9.861,0.537,20.852,4.526,26.161,9.921c5.131,5.215,11.984,8.086,19.3,8.086c7.148,0,13.892-2.761,18.989-7.775
				c7.923-7.796,10.019-19.31,6.252-29.076c2.503-2.195,4.616-4.831,6.169-7.807c6.901-13.236,1.749-29.622-11.486-36.525
				c-22.029-11.489-28.26-18.389-38.587-42.978c-0.681-2.509-1.478-4.992-2.39-7.445
				C405.965,359.956,430.202,327.469,430.202,284.673z M413.006,224.162c-8.193-13.569-19.05-25.827-31.994-36.296
				c13.763-10.678,28.628-16.183,40.741-19.01C423.991,182.473,424.225,202.999,413.006,224.162z M410.219,150.316
				c2.937,0.346,5.534,1.874,7.264,4.137c-14.606,3.513-32.613,10.486-49.002,24.258c-6.639-4.365-13.703-8.296-21.12-11.76
				C372.168,148.383,399.001,148.997,410.219,150.316z M127.765,150.317c11.209-1.321,37.983-1.932,62.761,16.562
				c-7.354,3.431-14.405,7.363-21.098,11.769c-16.368-13.729-34.342-20.686-48.926-24.194
				C122.233,152.19,124.829,150.663,127.765,150.317z M116.235,168.856c12.09,2.822,26.921,8.311,40.662,18.948
				c-0.458,0.371-0.921,0.735-1.375,1.111c-12.589,10.422-22.862,22.271-30.611,35.116
				C113.762,202.915,113.999,182.445,116.235,168.856z M183.488,418.596c-0.059-0.023-0.12-0.044-0.18-0.066
				c-0.477-0.171-0.955-0.337-1.429-0.523c-6.198-2.432-9.262-9.453-6.83-15.651c1.865-4.755,6.431-7.665,11.255-7.665
				c1.464,0,2.952,0.269,4.396,0.835c11.234,4.406,21.206,0.293,26.792-5.028c1.175-1.119,2.829-2.944,4.283-5.45
				c0.11-0.177,0.212-0.359,0.308-0.546c0.015-0.028,0.031-0.057,0.046-0.085c0.009-0.019,0.02-0.038,0.03-0.057
				c2.516-4.682,4.203-11.525,1.21-20.412c-2.125-6.31,1.279-13.172,7.588-15.297c6.313-2.127,13.174,1.28,15.299,7.589
				c6.326,18.783,1.686,38.612-12.11,51.747c-9.193,8.753-21.168,13.574-33.718,13.575
				C194.692,421.561,189.004,420.557,183.488,418.596z M88.985,425.528c-0.289-2.594,1.586-4.94,4.189-5.231
				c1.253-0.14,2.479,0.217,3.466,1.006c0.991,0.792,1.614,1.919,1.754,3.176c0.184,1.649,0.474,3.29,0.846,4.922
				c-3.158,1.183-6.322,1.896-9.214,2.312C89.572,429.683,89.217,427.621,88.985,425.528z M195.718,476.806
				c-11.506,6.073-25.673,8.52-40.273,6.95c-16.038-1.723-31.479-8.049-43.479-17.814c-7.136-5.807-12.716-12.531-16.638-19.925
				c3.04-0.596,6.253-1.458,9.496-2.695c2.812,4.792,6.453,9.298,10.834,13.33c10.712,9.856,24.819,15.974,40.799,17.69
				c7.054,0.757,23.506,1.268,37.812-7.608c2.144,2.373,4.418,4.647,6.817,6.81C199.358,474.721,197.576,475.826,195.718,476.806z
				 M320.754,491.596c-2.243,3.384-6.013,5.404-10.082,5.404h-0.001c-2.365,0-4.666-0.696-6.652-2.013
				c-12.487-8.279-29.724-11.505-61.498-11.505l-0.237,0.003c-0.069-0.002-0.14-0.003-0.21-0.003
				c-6.651,0-12.068-5.412-12.075-12.063c-0.003-3.225,1.25-6.258,3.528-8.541c2.279-2.283,5.31-3.542,8.528-3.545l0.518-0.001
				c30.835,0,55.353,2.641,74.79,15.527c2.688,1.782,4.522,4.505,5.162,7.666c0.108,0.533,0.167,1.068,0.203,1.601
				c0,0.039,0.005,0.079,0.006,0.118C322.886,486.836,322.215,489.395,320.754,491.596z M390.92,490.956
				c-2.273,2.236-5.281,3.468-8.469,3.468c-3.263,0-6.319-1.281-8.607-3.606c-8.258-8.393-23.428-14.051-37.466-14.439
				c-0.201-0.608-0.418-1.208-0.66-1.796c6.92-6.03,12.795-12.88,17.51-20.332c14.95,3.339,28.829,10.482,37.829,19.63
				C395.727,478.626,395.665,486.287,390.92,490.956z M365.943,419.715c7.11,8.586,15.95,14.76,29.495,21.825
				c5.903,3.079,8.201,10.387,5.124,16.289c-0.508,0.974-1.136,1.854-1.863,2.636c-10.086-9.082-23.57-16.061-38.382-19.933
				C363.048,433.87,364.941,426.89,365.943,419.715z M348.905,366.481c-0.007,0.002-0.013,0.005-0.02,0.007
				c-4.188,1.449-8.36,2.706-12.443,3.793c-4.003,1.065-6.384,5.173-5.319,9.176c1.066,4.003,5.176,6.383,9.177,5.32
				c2.355-0.627,4.651-1.299,6.919-1.991c3.01,8.004,4.558,16.378,4.558,24.987c0,12.151-3.097,23.905-8.868,34.442
				c-0.058,0.104-0.12,0.204-0.173,0.311c-4.153,7.497-9.666,14.369-16.384,20.322c-0.232-0.164-0.462-0.331-0.7-0.489
				c-22.563-14.96-49.53-18.025-83.079-18.025l-0.524,0.001c-7.232,0.007-14.028,2.83-19.138,7.948
				c-3.827,3.834-6.363,8.612-7.392,13.807c-10.377-8.107-18.444-18.443-23.462-30.083c2.773,0.362,5.565,0.557,8.369,0.557
				c16.419,0,32.066-6.29,44.061-17.711c7.649-7.283,13.147-16.114,16.333-25.723c2.739,0.065,5.472,0.108,8.172,0.108
				c12.103,0,23.901-0.621,35.066-1.844c4.117-0.452,7.089-4.155,6.638-8.272c-0.451-4.118-4.15-7.09-8.273-6.639
				c-10.624,1.164-21.872,1.755-33.432,1.755c-1.704,0-3.429-0.026-5.153-0.054c0.699-8.779-0.38-17.85-3.371-26.73
				c-4.764-14.146-20.153-21.779-34.301-17.018c-14.148,4.765-21.781,20.152-17.017,34.3c0.423,1.255,0.658,2.438,0.742,3.56
				c-7.344-1.618-14.257-3.548-20.736-5.781c-0.063-0.024-0.127-0.044-0.19-0.066c-16.374-5.665-29.96-13.27-40.539-22.76
				c-17.017-15.264-25.645-35.119-25.645-59.013c0-66.032,65.589-119.753,146.209-119.753s146.209,53.721,146.209,119.753
				C415.202,332.028,381.568,355.173,348.905,366.481z"/>
			<path d="M192.048,267.943c4.097,0.54,7.875-2.346,8.418-6.453c0.543-4.106-2.347-7.876-6.452-8.418
				c-9.025-1.193-27.54,0.19-35.309,2.133c-4.019,1.004-6.461,5.077-5.457,9.095c0.853,3.408,3.91,5.683,7.27,5.683
				c0.603,0,1.215-0.073,1.825-0.226C168.41,268.24,185.097,267.022,192.048,267.943z"/>
			<path d="M196.757,273.999c-8.796,2.336-25.39,10.67-31.832,15.425c-3.333,2.46-4.04,7.156-1.58,10.488
				c1.471,1.992,3.74,3.046,6.04,3.046c1.547,0,3.108-0.477,4.448-1.466c5.031-3.714,19.998-11.197,26.773-12.996
				c4.003-1.063,6.387-5.17,5.324-9.174C204.868,275.32,200.759,272.939,196.757,273.999z"/>
			<path d="M290.798,240.36h-31.219c-4.143,0-7.5,3.358-7.5,7.5c0,4.142,3.357,7.5,7.5,7.5h31.219c4.143,0,7.5-3.358,7.5-7.5
				C298.298,243.718,294.941,240.36,290.798,240.36z"/>
			<path d="M215.983,225.628c-4.143,0-7.5,3.358-7.5,7.5v9.828c0,4.142,3.357,7.5,7.5,7.5s7.5-3.358,7.5-7.5v-9.828
				C223.483,228.986,220.126,225.628,215.983,225.628z"/>
		</g>
	</g>
</g>
<g>
</g>
<g>
</g>
<g>
</g>
<g>
</g>
<g>
</g>
<g>
</g>
<g>
</g>
<g>
</g>
<g>
</g>
<g>
</g>
<g>
</g>
<g>
</g>
<g>
</g>
<g>
</g>
<g>
</g>
</svg>
